<svg xmlns="http://www.w3.org/2000/svg" xmlns:xlink="http://www.w3.org/1999/xlink" width="500" zoomAndPan="magnify" viewBox="0 0 375 374.999991" height="500" preserveAspectRatio="xMidYMid meet" version="1.0"><defs><clipPath id="53525ebfa2"><path d="M 51.871094 28.125 L 323.132812 28.125 L 323.132812 221.597656 L 51.871094 221.597656 Z M 51.871094 28.125 " clip-rule="nonzero"/></clipPath><clipPath id="9459e77af6"><path d="M 119.847656 221.160156 L 323.132812 221.160156 L 323.132812 346.875 L 119.847656 346.875 Z M 119.847656 221.160156 " clip-rule="nonzero"/></clipPath></defs><rect x="-37.5" width="450" fill="#ffffff" y="-37.499999" height="449.999989" fill-opacity="1"/><rect x="-37.5" width="450" fill="#071324" y="-37.499999" height="449.999989" fill-opacity="1"/><g clip-path="url(#53525ebfa2)"><path fill="#ffffff" d="M 64.410156 193.566406 C 72.4375 174.585938 83.925781 157.542969 98.554688 142.917969 C 113.179688 128.289062 130.21875 116.804688 149.203125 108.773438 C 168.875 100.453125 189.75 96.238281 211.25 96.238281 C 236.007812 96.238281 258.488281 106.148438 274.945312 122.203125 L 323.136719 74.011719 C 308.691406 59.769531 291.933594 48.546875 273.300781 40.664062 C 253.628906 32.34375 232.753906 28.125 211.25 28.125 C 189.75 28.125 168.875 32.34375 149.203125 40.664062 C 130.21875 48.691406 113.179688 60.179688 98.554688 74.808594 C 83.925781 89.429688 72.4375 106.472656 64.410156 125.457031 C 56.089844 145.128906 51.871094 166.003906 51.871094 187.503906 C 51.871094 199.066406 53.105469 210.445312 55.527344 221.558594 C 57.609375 212.007812 60.566406 202.65625 64.410156 193.566406 " fill-opacity="1" fill-rule="nonzero"/></g><g clip-path="url(#9459e77af6)"><path fill="#ffffff" d="M 211.25 278.773438 C 172.960938 278.773438 140.101562 255.066406 126.578125 221.558594 C 122.328125 232.089844 119.984375 243.582031 119.984375 255.613281 C 119.984375 305.9375 160.925781 346.882812 211.25 346.882812 C 232.753906 346.882812 253.628906 342.664062 273.300781 334.34375 C 291.933594 326.460938 308.691406 315.238281 323.136719 300.996094 L 274.945312 252.804688 C 258.488281 268.859375 236.007812 278.773438 211.25 278.773438 " fill-opacity="1" fill-rule="nonzero"/></g></svg>